# xmcd
#
# Track frame offsets:
#	183
#	26778
#	46360
#	71453
#	90373
#	109918
#	127815
#	146568
#	165405
#	183983
#
# Disc length: 2690 seconds
#
# Revision: 3
# Processed by: cddbd v1.4PL0 Copyright (c) Steve Scherf et al.
#
# Submitted via: MusicManager v6.2.0.0
#
DISCID=7d0a800a
DTITLE=Louis Price - Louis Price
DYEAR=1900
DGENRE=blues 
TTITLE0=Distant lover
TTITLE1=Play it by heart
TTITLE2=Heart's devotion
TTITLE3=Flesh and blood
TTITLE4=What becomes of the brokenhearted
TTITLE5=Nobody but you
TTITLE6=Just one thing
TTITLE7=How can I make you love me
TTITLE8=Try it baby
TTITLE9=I believe in you
EXTD=
EXTT0=
EXTT1=
EXTT2=
EXTT3=
EXTT4=
EXTT5=
EXTT6=
EXTT7=
EXTT8=
EXTT9=
PLAYORDER=
